<?xml version="1.0" encoding="UTF-8"?>
<svg width="1200pt" height="1200pt" version="1.1" viewBox="0 0 1200 1200" xmlns="http://www.w3.org/2000/svg" fill="#d3853c">
 <path d="m618.75 1053.3v-153.28h-37.5v153.28c-16.816 5.9453-29.816 19.516-35.035 36.57-5.2227 17.055-2.043 35.574 8.5625 49.914 10.605 14.34 27.387 22.801 45.223 22.801s34.617-8.4609 45.223-22.801c10.605-14.34 13.785-32.859 8.5625-49.914-5.2188-17.055-18.219-30.625-35.035-36.57zm-18.75 71.719c-4.9727 0-9.7422-1.9766-13.258-5.4922-3.5156-3.5156-5.4922-8.2852-5.4922-13.258s1.9766-9.7422 5.4922-13.258c3.5156-3.5156 8.2852-5.4922 13.258-5.4922s9.7422 1.9766 13.258 5.4922c3.5156 3.5156 5.4922 8.2852 5.4922 13.258-0.003906 4.9727-1.9805 9.7383-5.4961 13.254s-8.2812 5.4922-13.254 5.4961z"/>
 <path d="m871.88 1087.5c-5.8555 0-11.672 0.92188-17.238 2.7266l-85.887-97.973v-92.254h-37.5v99.309c0 4.5469 1.6523 8.9375 4.6523 12.359l88.887 101.4c-9.1562 14.078-11.535 31.512-6.4922 47.527 5.0391 16.016 16.98 28.941 32.547 35.234 15.57 6.293 33.137 5.2969 47.891-2.7148 14.758-8.0117 25.16-22.203 28.359-38.688 3.2031-16.484-1.1367-33.535-11.82-46.488-10.688-12.953-26.605-20.449-43.398-20.438zm0 75c-4.9727 0-9.7422-1.9766-13.258-5.4922-3.5156-3.5156-5.4922-8.2852-5.4922-13.258s1.9766-9.7422 5.4922-13.258c3.5156-3.5156 8.2852-5.4922 13.258-5.4922s9.7422 1.9766 13.258 5.4922c3.5156 3.5156 5.4922 8.2852 5.4922 13.258-0.003906 4.9727-1.9805 9.7383-5.4961 13.254s-8.2812 5.4922-13.254 5.4961z"/>
 <path d="m581.25 146.72v153.28h37.5v-153.28c16.816-5.9453 29.816-19.516 35.035-36.57 5.2227-17.055 2.043-35.574-8.5625-49.914-10.605-14.34-27.387-22.801-45.223-22.801s-34.617 8.4609-45.223 22.801c-10.605 14.34-13.785 32.859-8.5625 49.914 5.2188 17.055 18.219 30.625 35.035 36.57zm18.75-71.719c4.9727 0 9.7422 1.9766 13.258 5.4922 3.5156 3.5156 5.4922 8.2852 5.4922 13.258s-1.9766 9.7422-5.4922 13.258c-3.5156 3.5156-8.2852 5.4922-13.258 5.4922s-9.7422-1.9766-13.258-5.4922c-3.5156-3.5156-5.4922-8.2852-5.4922-13.258 0.003906-4.9727 1.9805-9.7383 5.4961-13.254s8.2812-5.4922 13.254-5.4961z"/>
 <path d="m328.12 112.5c5.8555 0 11.672-0.92188 17.238-2.7266l85.887 97.973v92.254h37.5v-99.309c0-4.5469-1.6523-8.9375-4.6523-12.359l-88.887-101.4c9.1562-14.074 11.539-31.508 6.4961-47.527-5.043-16.016-16.984-28.941-32.551-35.234s-33.133-5.2969-47.891 2.7148-25.16 22.203-28.359 38.688c-3.2031 16.484 1.1367 33.535 11.82 46.488 10.688 12.953 26.605 20.449 43.398 20.438zm0-75c4.9727 0 9.7422 1.9766 13.258 5.4922 3.5156 3.5156 5.4922 8.2852 5.4922 13.258s-1.9766 9.7422-5.4922 13.258c-3.5156 3.5156-8.2852 5.4922-13.258 5.4922s-9.7422-1.9766-13.258-5.4922c-3.5156-3.5156-5.4922-8.2852-5.4922-13.258 0.003906-4.9727 1.9805-9.7383 5.4961-13.254s8.2812-5.4922 13.254-5.4961z"/>
 <path d="m93.75 543.75c-13.82-0.015625-27.164 5.0586-37.484 14.25-10.32 9.1953-16.891 21.867-18.465 35.598-1.5742 13.73 1.9648 27.562 9.9375 38.852 7.9727 11.289 19.824 19.25 33.289 22.359 13.469 3.1094 27.609 1.1523 39.723-5.5 12.117-6.6484 21.359-17.527 25.969-30.559h153.28v-37.5h-153.28c-3.8789-10.953-11.055-20.438-20.535-27.152-9.4844-6.7148-20.812-10.328-32.434-10.348zm0 75c-4.9727 0-9.7422-1.9766-13.258-5.4922-3.5156-3.5156-5.4922-8.2852-5.4922-13.258s1.9766-9.7422 5.4922-13.258c3.5156-3.5156 8.2852-5.4922 13.258-5.4922s9.7422 1.9766 13.258 5.4922c3.5156 3.5156 5.4922 8.2852 5.4922 13.258-0.003906 4.9727-1.9805 9.7383-5.4961 13.254s-8.2812 5.4922-13.254 5.4961z"/>
 <path d="m56.25 384.38c10.902 0.003906 21.57-3.1797 30.684-9.1641l101.4 88.887c3.4219 3 7.8125 4.6523 12.359 4.6523h99.309v-37.5h-92.254l-97.973-85.887c4.8789-15.164 3.0977-31.684-4.8984-45.461-8-13.777-21.465-23.516-37.051-26.797-15.59-3.2812-31.84 0.20312-44.711 9.5859-12.875 9.3828-21.164 23.785-22.812 39.629-1.6484 15.844 3.5039 31.645 14.168 43.473 10.668 11.832 25.852 18.586 41.781 18.582zm0-75c4.9727 0 9.7422 1.9766 13.258 5.4922 3.5156 3.5156 5.4922 8.2852 5.4922 13.258s-1.9766 9.7422-5.4922 13.258c-3.5156 3.5156-8.2852 5.4922-13.258 5.4922s-9.7422-1.9766-13.258-5.4922c-3.5156-3.5156-5.4922-8.2852-5.4922-13.258 0.003906-4.9727 1.9805-9.7383 5.4961-13.254s8.2812-5.4922 13.254-5.4961z"/>
 <path d="m1106.2 656.25c13.82 0.015625 27.164-5.0586 37.484-14.25 10.32-9.1953 16.891-21.867 18.465-35.598 1.5742-13.73-1.9648-27.562-9.9375-38.852-7.9727-11.289-19.824-19.25-33.289-22.359-13.469-3.1094-27.609-1.1523-39.723 5.5-12.117 6.6484-21.359 17.527-25.969 30.559h-153.28v37.5h153.28c3.8789 10.953 11.055 20.438 20.535 27.152 9.4844 6.7148 20.812 10.328 32.434 10.348zm0-75c4.9727 0 9.7422 1.9766 13.258 5.4922 3.5156 3.5156 5.4922 8.2852 5.4922 13.258s-1.9766 9.7422-5.4922 13.258c-3.5156 3.5156-8.2852 5.4922-13.258 5.4922s-9.7422-1.9766-13.258-5.4922c-3.5156-3.5156-5.4922-8.2852-5.4922-13.258 0.003906-4.9727 1.9805-9.7383 5.4961-13.254s8.2812-5.4922 13.254-5.4961z"/>
 <path d="m1143.8 815.62c-10.902-0.003906-21.57 3.1797-30.684 9.1641l-101.4-88.887c-3.4219-3-7.8125-4.6523-12.359-4.6523h-99.309v37.5h92.254l97.973 85.887c-4.8789 15.164-3.0977 31.684 4.8984 45.461 8 13.777 21.465 23.516 37.051 26.797 15.59 3.2812 31.84-0.20312 44.711-9.5859 12.875-9.3828 21.164-23.785 22.812-39.629 1.6484-15.844-3.5039-31.645-14.168-43.473-10.668-11.832-25.852-18.586-41.781-18.582zm0 75c-4.9727 0-9.7422-1.9766-13.258-5.4922-3.5156-3.5156-5.4922-8.2852-5.4922-13.258s1.9766-9.7422 5.4922-13.258c3.5156-3.5156 8.2852-5.4922 13.258-5.4922s9.7422 1.9766 13.258 5.4922c3.5156 3.5156 5.4922 8.2852 5.4922 13.258-0.003906 4.9727-1.9805 9.7383-5.4961 13.254s-8.2812 5.4922-13.254 5.4961z"/>
 <path d="m768.75 207.75 85.887-97.973c17.016 5.5156 35.637 2.6328 50.191-7.7656 14.555-10.398 23.312-27.086 23.605-44.973 0.29297-17.887-7.918-34.848-22.121-45.719-14.207-10.871-32.727-14.359-49.914-9.4023-17.188 4.9609-31.004 17.777-37.238 34.543s-4.1445 35.496 5.6289 50.477l-88.887 101.4c-3 3.4219-4.6523 7.8125-4.6523 12.359v99.309h37.5zm103.12-170.25c4.9727 0 9.7422 1.9766 13.258 5.4922 3.5156 3.5156 5.4922 8.2852 5.4922 13.258s-1.9766 9.7422-5.4922 13.258c-3.5156 3.5156-8.2852 5.4922-13.258 5.4922s-9.7422-1.9766-13.258-5.4922c-3.5156-3.5156-5.4922-8.2852-5.4922-13.258 0.003906-4.9727 1.9805-9.7383 5.4961-13.254s8.2812-5.4922 13.254-5.4961z"/>
 <path d="m393.75 862.5h412.5c14.914-0.015625 29.211-5.9492 39.758-16.492 10.543-10.547 16.477-24.844 16.492-39.758v-412.5c-0.015625-14.914-5.9492-29.211-16.492-39.758-10.547-10.543-24.844-16.477-39.758-16.492h-412.5c-14.914 0.015625-29.211 5.9492-39.758 16.492-10.543 10.547-16.477 24.844-16.492 39.758v412.5c0.015625 14.914 5.9492 29.211 16.492 39.758 10.547 10.543 24.844 16.477 39.758 16.492zm-18.75-468.75c0.003906-4.9727 1.9805-9.7383 5.4961-13.254s8.2812-5.4922 13.254-5.4961h412.5c4.9727 0.003906 9.7383 1.9805 13.254 5.4961s5.4922 8.2812 5.4961 13.254v412.5c-0.003906 4.9727-1.9805 9.7383-5.4961 13.254s-8.2812 5.4922-13.254 5.4961h-412.5c-4.9727-0.003906-9.7383-1.9805-13.254-5.4961s-5.4922-8.2812-5.4961-13.254z"/>
 <path d="m520.68 712.5h158.65-0.003906c8.7969-0.011719 17.23-3.5078 23.449-9.7266s9.7148-14.652 9.7266-23.449v-158.65c-0.011719-8.7969-3.5078-17.23-9.7266-23.449s-14.652-9.7148-23.449-9.7266h-158.65c-8.7969 0.011719-17.23 3.5078-23.449 9.7266s-9.7148 14.652-9.7266 23.449v158.65c0.011719 8.7969 3.5078 17.23 9.7266 23.449s14.652 9.7148 23.449 9.7266zm4.3242-187.5h150v150h-150z"/>
 <path d="m656.25 300h37.5v-46.875c0-6.6992-3.5742-12.887-9.375-16.238-5.8008-3.3477-12.949-3.3477-18.75 0-5.8008 3.3516-9.375 9.5391-9.375 16.238z"/>
 <path d="m543.75 300v-46.875c0-6.6992-3.5742-12.887-9.375-16.238-5.8008-3.3477-12.949-3.3477-18.75 0-5.8008 3.3516-9.375 9.5391-9.375 16.238v46.875z"/>
 <path d="m900 431.25v37.5h99.309c4.5469 0 8.9375-1.6523 12.359-4.6523l101.4-88.887c14.949 9.7344 33.625 11.801 50.344 5.5742 16.715-6.2266 29.488-20.008 34.426-37.148 4.9414-17.141 1.4609-35.609-9.3789-49.773-10.84-14.168-27.758-22.355-45.594-22.066-17.832 0.28516-34.477 9.0117-44.855 23.52-10.379 14.504-13.266 33.074-7.7812 50.047l-97.973 85.887zm243.75-121.88c4.9727 0 9.7422 1.9766 13.258 5.4922 3.5156 3.5156 5.4922 8.2852 5.4922 13.258s-1.9766 9.7422-5.4922 13.258c-3.5156 3.5156-8.2852 5.4922-13.258 5.4922s-9.7422-1.9766-13.258-5.4922c-3.5156-3.5156-5.4922-8.2852-5.4922-13.258 0.003906-4.9727 1.9805-9.7383 5.4961-13.254s8.2812-5.4922 13.254-5.4961z"/>
 <path d="m965.62 525c0-4.9727-1.9766-9.7422-5.4922-13.258-3.5156-3.5156-8.2852-5.4922-13.258-5.4922h-46.875v37.5h46.875c4.9727 0 9.7422-1.9766 13.258-5.4922 3.5156-3.5156 5.4922-8.2852 5.4922-13.258z"/>
 <path d="m543.75 900h-37.5v46.875c0 6.6992 3.5742 12.887 9.375 16.238 5.8008 3.3477 12.949 3.3477 18.75 0 5.8008-3.3516 9.375-9.5391 9.375-16.238z"/>
 <path d="m656.25 900v46.875c0 6.6992 3.5742 12.887 9.375 16.238 5.8008 3.3477 12.949 3.3477 18.75 0 5.8008-3.3516 9.375-9.5391 9.375-16.238v-46.875z"/>
 <path d="m965.62 675c0-4.9727-1.9766-9.7422-5.4922-13.258-3.5156-3.5156-8.2852-5.4922-13.258-5.4922h-46.875v37.5h46.875c4.9727 0 9.7422-1.9766 13.258-5.4922 3.5156-3.5156 5.4922-8.2852 5.4922-13.258z"/>
 <path d="m234.38 525c0 4.9727 1.9766 9.7422 5.4922 13.258 3.5156 3.5156 8.2852 5.4922 13.258 5.4922h46.875v-37.5h-46.875c-4.9727 0-9.7422 1.9766-13.258 5.4922-3.5156 3.5156-5.4922 8.2852-5.4922 13.258z"/>
 <path d="m253.12 693.75h46.875v-37.5h-46.875c-6.6992 0-12.887 3.5742-16.238 9.375-3.3477 5.8008-3.3477 12.949 0 18.75 3.3516 5.8008 9.5391 9.375 16.238 9.375z"/>
 <path d="m300 768.75v-37.5h-99.309c-4.5469 0-8.9375 1.6523-12.359 4.6523l-101.4 88.887c-14.949-9.7344-33.625-11.801-50.344-5.5742-16.715 6.2266-29.488 20.008-34.426 37.148-4.9414 17.141-1.4609 35.609 9.3789 49.773 10.84 14.168 27.758 22.355 45.594 22.07 17.836-0.28906 34.477-9.0156 44.855-23.523 10.379-14.508 13.266-33.074 7.7812-50.047l97.973-85.887zm-243.75 121.88c-4.9727 0-9.7422-1.9766-13.258-5.4922-3.5156-3.5156-5.4922-8.2852-5.4922-13.258s1.9766-9.7422 5.4922-13.258c3.5156-3.5156 8.2852-5.4922 13.258-5.4922s9.7422 1.9766 13.258 5.4922c3.5156 3.5156 5.4922 8.2852 5.4922 13.258-0.003906 4.9727-1.9805 9.7383-5.4961 13.254s-8.2812 5.4922-13.254 5.4961z"/>
 <path d="m431.25 992.25-85.887 97.973c-17.016-5.5156-35.641-2.6367-50.195 7.7656-14.555 10.398-23.312 27.086-23.605 44.973-0.29297 17.887 7.918 34.852 22.125 45.723 14.203 10.867 32.727 14.355 49.914 9.3984 17.188-4.957 31.004-17.773 37.238-34.539 6.2344-16.77 4.1445-35.5-5.6289-50.48l88.887-101.4c3-3.4219 4.6523-7.8125 4.6523-12.359v-99.309h-37.5zm-103.12 170.25c-4.9727 0-9.7422-1.9766-13.258-5.4922-3.5156-3.5156-5.4922-8.2852-5.4922-13.258s1.9766-9.7422 5.4922-13.258c3.5156-3.5156 8.2852-5.4922 13.258-5.4922s9.7422 1.9766 13.258 5.4922c3.5156 3.5156 5.4922 8.2852 5.4922 13.258-0.003906 4.9727-1.9805 9.7383-5.4961 13.254s-8.2812 5.4922-13.254 5.4961z"/>
</svg>
